name C:\Users\r0593348\3dpredictsim\Results\Batchsim_tmt_linear\Pog_s1_tmt_bCst_d02_k2000_ig24.mot
datacolumns 128
datarows 4
range 1.07467102 1.10691116
endheader
time	pelvis_tilt	pelvis_list	pelvis_rotation	pelvis_tx	pelvis_ty	pelvis_tz	hip_flexion_l	hip_adduction_l	hip_rotation_l	hip_flexion_r	hip_adduction_r	hip_rotation_r	knee_angle_l	knee_angle_r	ankle_angle_l	ankle_angle_r	subtalar_angle_l	subtalar_angle_r	tmt_angle_l	tmt_angle_r	mtp_angle_l	mtp_angle_r	lumbar_extension	lumbar_bending	lumbar_rotation	arm_flex_l	arm_add_l	arm_rot_l	arm_flex_r	arm_add_r	arm_rot_r	elbow_flex_l	elbow_flex_r	pro_sup_l	pro_sup_r	glut_med1_l/activation	glut_med2_l/activation	glut_med3_l/activation	glut_min1_l/activation	glut_min2_l/activation	glut_min3_l/activation	semimem_l/activation	semiten_l/activation	bifemlh_l/activation	bifemsh_l/activation	sar_l/activation	add_long_l/activation	add_brev_l/activation	add_mag1_l/activation	add_mag2_l/activation	add_mag3_l/activation	tfl_l/activation	pect_l/activation	grac_l/activation	glut_max1_l/activation	glut_max2_l/activation	glut_max3_l/activation	iliacus_l/activation	psoas_l/activation	quad_fem_l/activation	gem_l/activation	peri_l/activation	rect_fem_l/activation	vas_med_l/activation	vas_int_l/activation	vas_lat_l/activation	med_gas_l/activation	lat_gas_l/activation	soleus_l/activation	tib_post_l/activation	flex_dig_l/activation	flex_hal_l/activation	tib_ant_l/activation	per_brev_l/activation	per_long_l/activation	per_tert_l/activation	ext_dig_l/activation	ext_hal_l/activation	ercspn_l/activation	intobl_l/activation	extobl_l/activation	glut_med1_r/activation	glut_med2_r/activation	glut_med3_r/activation	glut_min1_r/activation	glut_min2_r/activation	glut_min3_r/activation	semimem_r/activation	semiten_r/activation	bifemlh_r/activation	bifemsh_r/activation	sar_r/activation	add_long_r/activation	add_brev_r/activation	add_mag1_r/activation	add_mag2_r/activation	add_mag3_r/activation	tfl_r/activation	pect_r/activation	grac_r/activation	glut_max1_r/activation	glut_max2_r/activation	glut_max3_r/activation	iliacus_r/activation	psoas_r/activation	quad_fem_r/activation	gem_r/activation	peri_r/activation	rect_fem_r/activation	vas_med_r/activation	vas_int_r/activation	vas_lat_r/activation	med_gas_r/activation	lat_gas_r/activation	soleus_r/activation	tib_post_r/activation	flex_dig_r/activation	flex_hal_r/activation	tib_ant_r/activation	per_brev_r/activation	per_long_r/activation	per_tert_r/activation	ext_dig_r/activation	ext_hal_r/activation	ercspn_r/activation	intobl_r/activation	extobl_r/activation	
          1.07467102	         -2.92966022	         -2.24344538	          5.25981160	          1.34333878	          0.85854962	         -0.00219024	        -18.10968813	         -1.68994191	          7.10105346	         31.61160921	          3.14584158	         -1.72834929	         -5.98634341	        -14.54951317	          1.59097105	          7.30612474	          9.56836486	         -3.22775882	          0.51507806	          0.01770914	         21.03851276	         -0.12857164	         -2.00785297	          0.57822657	         -1.96339338	          8.30329626	        -13.45212530	         17.77966958	         -8.50033256	        -13.51592947	          7.88532458	         34.27592176	         13.50396218	         86.51662706	         86.51662706	          0.32639701	          0.11395788	          0.08196604	          0.34071127	          0.22458779	          0.11395838	          0.05000080	          0.05000014	          0.05000010	          0.07751712	          0.11395820	          0.05000013	          0.05000011	          0.05000013	          0.05000035	          0.05000024	          0.33124181	          0.05000053	          0.05000036	          0.05000726	          0.05000277	          0.05000088	          0.38680944	          0.63775292	          0.05000020	          0.05000061	          0.05875734	          0.20200046	          0.05000133	          0.05000064	          0.05000066	          0.33321153	          0.44937051	          0.31443828	          0.27275128	          0.28882828	          0.38877619	          0.05000002	          0.05970916	          0.15998519	          0.05000015	          0.05000004	          0.05000015	          0.05000001	          0.05000000	          0.05000002	          0.10041426	          0.05000011	          0.05895528	          0.05000009	          0.05000011	          0.05000037	          0.05895561	          0.05895567	          0.20398039	          0.05000037	          0.05000149	          0.10655758	          0.15486601	          0.21177071	          0.15533012	          0.10611294	          0.05895562	          0.05006400	          0.05896111	          0.05895352	          0.06951499	          0.10804326	          0.05000010	          0.05000015	          0.24290797	          0.05029631	          0.05000034	          0.05000037	          0.09432678	          0.09686987	          0.08291201	          0.05895552	          0.05238748	          0.05895557	          0.05000004	          0.05000067	          0.05000228	          0.49198048	          0.37961427	          0.21914553	          0.27618938	          0.54269332	          0.28187122	          0.07712084	          0.11062342	          0.11450377	
          1.08541773	         -2.92507632	         -2.33555357	          5.55573023	          1.35932532	          0.85747504	         -0.00199486	        -17.98754092	         -1.98645034	          6.87070089	         31.02907591	          3.49569227	         -1.51800493	         -7.90636570	        -14.41495601	          0.86658897	          6.74485387	         10.51797880	         -3.70480934	          0.49409449	          0.02150963	         22.10869092	         -0.10921267	         -1.82046386	          0.79693355	         -2.03727862	          8.18693224	        -13.45937408	         17.99655050	         -9.52619117	        -13.50878193	          7.77491904	         35.38917988	         13.35631917	         86.51662706	         86.51662706	          0.27681606	          0.09664724	          0.06951510	          0.28895594	          0.19047205	          0.09664768	          0.05000279	          0.05000044	          0.05000065	          0.06574198	          0.09664763	          0.11874059	          0.05014213	          0.05901444	          0.05000920	          0.06951172	          0.28092495	          0.06594253	          0.05000292	          0.05000182	          0.05000134	          0.05000132	          0.32805158	          0.57072078	          0.05000048	          0.05008171	          0.05895567	          0.17131585	          0.05000217	          0.18071686	          0.16376509	          0.28259536	          0.38110935	          0.26932409	          0.24901562	          0.24495556	          0.32972079	          0.05000002	          0.05063936	          0.16469553	          0.05000011	          0.05000003	          0.05000011	          0.05000001	          0.06951522	          0.05000002	          0.08516104	          0.05895534	          0.05000009	          0.05895593	          0.05895560	          0.05000062	          0.05000007	          0.05000027	          0.17694765	          0.05000037	          0.05000107	          0.09037165	          0.13134143	          0.22575875	          0.17767279	          0.10117264	          0.05000023	          0.05000177	          0.05000497	          0.05000372	          0.05895553	          0.11316121	          0.05132161	          0.05120784	          0.50483811	          0.13437699	          0.08533825	          0.06951532	          0.18381780	          0.18799068	          0.16314567	          0.05000000	          0.05000001	          0.05000000	          0.05000011	          0.05895580	          0.05000298	          0.54736035	          0.33691251	          0.22792955	          0.46001407	          0.58090864	          0.25019560	          0.06540588	          0.09381928	          0.09711019	
          1.09616445	         -2.91635694	         -2.42306031	          5.82838912	          1.37561764	          0.85641915	         -0.00180827	        -17.79029881	         -2.27458132	          6.63055503	         30.32165316	          3.79477862	         -1.24503414	         -9.96099724	        -14.81880133	         -0.01611032	          6.12195434	         11.42874623	         -4.20347365	          0.46452505	         -0.01539604	         23.04181061	         -0.15126066	         -1.60983183	          1.01757178	         -2.10156876	          7.98161514	        -13.46653071	         18.14194392	        -10.57613511	        -13.50329594	          7.68729998	         36.47087337	         13.27109849	         86.51662706	         86.51662706	          0.34389847	          0.08196615	          0.05895551	          0.24506253	          0.16153862	          0.08196654	          0.05000153	          0.05000049	          0.05000049	          0.05575554	          0.08196664	          0.14414778	          0.10056805	          0.05895655	          0.05895584	          0.05895555	          0.23825161	          0.08550257	          0.05005633	          0.05000778	          0.05000891	          0.05895105	          0.27821934	          0.54417461	          0.05893991	          0.05000092	          0.05000015	          0.14529231	          0.09754573	          0.15326563	          0.13888899	          0.23966799	          0.32321732	          0.22841268	          0.21118922	          0.20774602	          0.27963502	          0.05000001	          0.05000031	          0.18262189	          0.05000007	          0.05000001	          0.05000009	          0.05492002	          0.05895559	          0.05000116	          0.26720695	          0.05000005	          0.30227337	          0.05000034	          0.05000014	          0.21704101	          0.07444569	          0.05000019	          0.15964720	          0.05000006	          0.05000031	          0.08196832	          0.22963204	          0.19146575	          0.15068840	          0.13178506	          0.05000039	          0.05896053	          0.11537046	          0.05000009	          0.05000012	          0.11626291	          0.05872771	          0.05000088	          0.42815121	          0.11396466	          0.15864222	          0.05895568	          0.15589521	          0.15943423	          0.13836325	          0.06358992	          0.06379648	          0.05895630	          0.05895560	          0.05000030	          0.05000044	          0.46421412	          0.34533859	          0.19330621	          0.39013621	          0.57735228	          0.21218991	          0.05547048	          0.09732826	          0.08235877	
          1.10691116	         -2.90516470	         -2.50957241	          6.07038198	          1.39205895	          0.85538680	         -0.00161138	        -17.49627498	         -2.55391441	          6.38650130	         29.48960939	          4.05892231	         -0.96230301	        -12.16749387	        -15.26396513	         -1.05011888	          5.67715663	         12.28273637	         -4.69571535	          0.43171541	         -0.01097999	         23.78649010	         -0.15933214	         -1.39170517	          1.24282920	         -2.15623168	          7.70919525	        -13.47667684	         18.22654269	        -11.60882421	        -13.50059957	          7.64184623	         37.51213794	         13.22041551	         86.51662706	         86.51662706	          0.30344911	          0.06951518	          0.05000008	          0.34678475	          0.13700031	          0.06951553	          0.05000222	          0.05000012	          0.05000011	          0.05000015	          0.06951615	          0.13267857	          0.08529147	          0.05000098	          0.05000076	          0.05000036	          0.26031964	          0.07251595	          0.05000039	          0.05000104	          0.05000063	          0.05000037	          0.23595683	          0.50715097	          0.05000007	          0.05000049	          0.05000028	          0.13436908	          0.08272842	          0.12998443	          0.12777963	          0.20326146	          0.27411932	          0.19371587	          0.17910876	          0.17618866	          0.23715741	          0.05000003	          0.09521243	          0.18393541	          0.05000012	          0.05000022	          0.05000016	          0.07338760	          0.05000001	          0.05000001	          0.31719203	          0.28650376	          0.36704011	          0.19046508	          0.20809486	          0.18407206	          0.06313718	          0.09746991	          0.13539618	          0.08196673	          0.05893675	          0.06951703	          0.19475003	          0.16238142	          0.12779840	          0.15310553	          0.05000026	          0.05000442	          0.09784564	          0.22210791	          0.16977461	          0.13240890	          0.05000005	          0.05000007	          0.36311337	          0.09665314	          0.13454402	          0.05000010	          0.13221417	          0.13521569	          0.11734539	          0.05393037	          0.05410556	          0.05000061	          0.05000002	          0.05895564	          0.05293817	          0.59177965	          0.43085144	          0.22159833	          0.64469402	          0.64342204	          0.33834106	          0.07788940	          0.08983783	          0.06984814	
